# xmcd
#
# Track frame offsets: 
#        150
#        12949
#        27323
#        41547
#        56296
#        69770
#        82044
#        96493
#        111017
#        123216
#        138490
#        150764
#        161988
#        177337
#        191936
#        205335
#        221209
#
# Disc length: 3153 seconds
#
# Revision: 0
# Processed by: cddbd v1.5.2PL0 Copyright (c) Steve Scherf et al.
# Submitted via: ExactAudioCopy v1.0b4
#
DISCID=ec0c4f11
DTITLE=Muddy Waters - Original Hits and Rarities 1941-1961 Liong Distanc
DTITLE=e Call
DYEAR=1900
DGENRE=Blues
TTITLE0=Appealing Blues
TTITLE1=Early Morning Blues
TTITLE2=Rollin' stone
TTITLE3=Still A Fool
TTITLE4=She Moves Me
TTITLE5=My Fault
TTITLE6=Country Boy
TTITLE7=Too Young To Know
TTITLE8=Long Distance Call
TTITLE9=Honey Bee
TTITLE10=Howling Wolf
TTITLE11=Gone To Main Street
TTITLE12=Standing Around Crying
TTITLE13=Please Have Mercy
TTITLE14=All Night Long
TTITLE15=Lodine In My Coffee
TTITLE16=The Call Me Muddy Waters
EXTD=
EXTT0=
EXTT1=
EXTT2=
EXTT3=
EXTT4=
EXTT5=
EXTT6=
EXTT7=
EXTT8=
EXTT9=
EXTT10=
EXTT11=
EXTT12=
EXTT13=
EXTT14=
EXTT15=
EXTT16=
PLAYORDER=
